<svg xmlns="http://www.w3.org/2000/svg" viewBox="0 0 24 24" id="Time-Stopwatch-Quarter--Streamline-Ultimate"><desc>Time Stopwatch Quarter Streamline Icon: https://streamlinehq.com</desc><g id="Time-Stopwatch-Quarter--Streamline-Ultimate"><path d="M12 8.5a0.5 0.5 0 0 0 -0.5 0.5v5.5a0.5 0.5 0 0 0 0.5 0.5h5.5a0.5 0.5 0 0 0 0.5 -0.5 6 6 0 0 0 -6 -6Z" fill="#000000" stroke-width="1"></path><path d="M19.51 8.69a0.25 0.25 0 0 1 0 -0.33l1.65 -1.65a1 1 0 0 0 -1.42 -1.42L18.11 7a0.25 0.25 0 0 1 -0.33 0 9.46 9.46 0 0 0 -4.56 -1.89 0.25 0.25 0 0 1 -0.22 -0.28V2.25a0.25 0.25 0 0 1 0.25 -0.25H15a1 1 0 0 0 0 -2H9a1 1 0 0 0 0 2h1.75a0.25 0.25 0 0 1 0.25 0.25v2.58a0.25 0.25 0 0 1 -0.22 0.25 9.51 9.51 0 1 0 8.73 3.61ZM12 22a7.5 7.5 0 1 1 7.5 -7.5A7.5 7.5 0 0 1 12 22Z" fill="#000000" stroke-width="1"></path></g></svg>